<svg width="518" height="120" viewBox="0 0 518 120" fill="none" xmlns="http://www.w3.org/2000/svg">
<g clip-path="url(#clip0_1353_15404)">
<path d="M1.13084e-05 27.6619C1.26675e-05 19.889 8.47972 15.0878 15.145 19.087L40.2899 34.174C46.314 37.7884 50 44.2986 50 51.3238V68.6762C50 75.7015 46.314 82.2116 40.2899 85.8261L15.1449 100.913C8.47969 104.912 -1.359e-06 100.111 0 92.3381L1.13084e-05 27.6619Z" fill="#FA776C"/>
<path d="M103.855 1.74656e-05C109.151 1.85911e-05 111.85 6.362 108.169 10.1701L94.896 23.9004C91.1277 27.7987 85.9381 30 80.5163 30H55.5395C51.9146 30 48.3579 29.0148 45.2496 27.1498L18.5747 11.1449C13.3566 8.01406 15.5764 -1.2931e-06 21.6617 0L103.855 1.74656e-05Z" fill="#624CF5"/>
<path d="M103.855 120C109.151 120 111.85 113.638 108.169 109.83L94.896 96.0995C91.1277 92.2013 85.9382 90 80.5163 90H55.5395C51.9146 90 48.3579 90.9851 45.2496 92.8501L18.5747 108.855C13.3566 111.986 15.5764 120 21.6617 120H103.855Z" fill="#624CF5"/>
<path d="M86 60C86 51.7157 79.2843 45 71 45C62.7157 45 56 51.7157 56 60C56 68.2843 62.7157 75 71 75C79.2843 75 86 68.2843 86 60Z" fill="#FA776C"/>
<path d="M472.185 43.1216C472.185 41.9835 472.696 41.1227 473.717 40.5391C474.738 39.9263 476.197 39.6199 478.094 39.6199C478.532 39.6199 478.926 39.6782 479.276 39.795C479.626 39.9117 479.933 40.1451 480.195 40.4953C480.487 40.8163 480.75 41.2686 480.983 41.8522C481.216 42.4358 481.45 43.1799 481.683 44.0845C481.917 45.1059 482.15 45.6165 482.384 45.6165C482.588 45.6165 482.836 45.1934 483.128 44.3472C483.653 42.6839 484.339 41.2394 485.185 40.0138C486.06 38.7591 487.038 37.7231 488.118 36.9061C489.197 36.0598 490.365 35.4325 491.619 35.0239C492.903 34.6154 494.246 34.4111 495.646 34.4111C498.477 34.4111 501.118 34.951 503.569 36.0307C506.02 37.0812 508.136 38.5548 509.916 40.4515C511.696 42.3191 513.096 44.5368 514.118 47.1047C515.139 49.6435 515.65 52.401 515.65 55.3775C515.65 58.529 515.095 61.447 513.986 64.1317C512.907 66.8163 511.389 69.1362 509.434 71.0913C507.479 73.0172 505.145 74.52 502.431 75.5997C499.746 76.7086 496.799 77.263 493.589 77.263L491.357 77.1754C490.044 77.1754 489.387 77.9195 489.387 79.4078L491.619 99.4987C491.59 99.9947 491.415 100.447 491.094 100.856C490.802 101.293 490.394 101.673 489.869 101.994C489.372 102.315 488.774 102.563 488.074 102.738C487.403 102.913 486.702 103 485.973 103C483.872 103 482.734 102.315 482.559 100.943C481.946 95.6322 481.26 90.584 480.502 85.7983C479.772 81.0127 479.013 76.5626 478.225 72.4482C477.467 68.3045 476.723 64.5402 475.993 61.1552C475.264 57.7703 474.607 54.823 474.023 52.3135C473.469 49.8039 473.031 47.7613 472.71 46.1855C472.36 44.6098 472.185 43.5885 472.185 43.1216ZM486.411 54.6771C486.411 56.5739 486.484 58.456 486.63 60.3236C486.775 62.162 487.009 64.1609 487.33 66.3202C487.505 67.6334 488.22 68.3775 489.475 68.5525C490.233 68.7276 491.08 68.9027 492.013 69.0778C492.976 69.2237 493.779 69.2967 494.421 69.2967C496.288 69.2967 497.981 69.0194 499.498 68.465C501.016 67.9106 502.314 67.1227 503.394 66.1014C504.473 65.0509 505.305 63.8107 505.889 62.3808C506.472 60.951 506.764 59.3606 506.764 57.6098C506.764 55.4796 506.472 53.4953 505.889 51.6569C505.305 49.7894 504.503 48.1698 503.481 46.7983C502.489 45.4268 501.307 44.3472 499.936 43.5593C498.594 42.7714 497.135 42.3775 495.559 42.3775C494.187 42.3775 492.933 42.6839 491.794 43.2967C490.686 43.8803 489.723 44.7119 488.906 45.7916C488.118 46.8421 487.505 48.1261 487.067 49.6435C486.63 51.1609 486.411 52.8387 486.411 54.6771Z" fill="url(#paint0_linear_1353_15404)"/>
<path d="M428.064 43.1216C428.064 41.9835 428.575 41.1227 429.596 40.5391C430.617 39.9263 432.076 39.6199 433.973 39.6199C434.411 39.6199 434.805 39.6782 435.155 39.795C435.505 39.9117 435.811 40.1451 436.074 40.4953C436.366 40.8163 436.628 41.2686 436.862 41.8522C437.095 42.4358 437.329 43.1799 437.562 44.0845C437.796 45.1059 438.029 45.6165 438.263 45.6165C438.467 45.6165 438.715 45.1934 439.007 44.3472C439.532 42.6839 440.218 41.2394 441.064 40.0138C441.939 38.7591 442.917 37.7231 443.997 36.9061C445.076 36.0598 446.244 35.4325 447.498 35.0239C448.782 34.6154 450.125 34.4111 451.525 34.4111C454.356 34.4111 456.997 34.951 459.448 36.0307C461.899 37.0812 464.015 38.5548 465.795 40.4515C467.575 42.3191 468.975 44.5368 469.997 47.1047C471.018 49.6435 471.529 52.401 471.529 55.3775C471.529 58.529 470.974 61.447 469.865 64.1317C468.786 66.8163 467.268 69.1362 465.313 71.0913C463.358 73.0172 461.024 74.52 458.31 75.5997C455.625 76.7086 452.678 77.263 449.468 77.263L447.236 77.1754C445.923 77.1754 445.266 77.9195 445.266 79.4078L447.498 99.4987C447.469 99.9947 447.294 100.447 446.973 100.856C446.681 101.293 446.273 101.673 445.747 101.994C445.251 102.315 444.653 102.563 443.953 102.738C443.282 102.913 442.581 103 441.852 103C439.751 103 438.613 102.315 438.438 100.943C437.825 95.6322 437.139 90.584 436.38 85.7983C435.651 81.0127 434.892 76.5626 434.104 72.4482C433.346 68.3045 432.602 64.5402 431.872 61.1552C431.143 57.7703 430.486 54.823 429.902 52.3135C429.348 49.8039 428.91 47.7613 428.589 46.1855C428.239 44.6098 428.064 43.5885 428.064 43.1216ZM442.29 54.6771C442.29 56.5739 442.363 58.456 442.508 60.3236C442.654 62.162 442.888 64.1609 443.209 66.3202C443.384 67.6334 444.099 68.3775 445.354 68.5525C446.112 68.7276 446.958 68.9027 447.892 69.0778C448.855 69.2237 449.658 69.2967 450.3 69.2967C452.167 69.2967 453.86 69.0194 455.377 68.465C456.894 67.9106 458.193 67.1227 459.273 66.1014C460.352 65.0509 461.184 63.8107 461.768 62.3808C462.351 60.951 462.643 59.3606 462.643 57.6098C462.643 55.4796 462.351 53.4953 461.768 51.6569C461.184 49.7894 460.382 48.1698 459.36 46.7983C458.368 45.4268 457.186 44.3472 455.815 43.5593C454.472 42.7714 453.013 42.3775 451.438 42.3775C450.066 42.3775 448.811 42.6839 447.673 43.2967C446.565 43.8803 445.602 44.7119 444.785 45.7916C443.997 46.8421 443.384 48.1261 442.946 49.6435C442.508 51.1609 442.29 52.8387 442.29 54.6771Z" fill="url(#paint1_linear_1353_15404)"/>
<path d="M409.986 35.417C411.591 35.417 413.138 35.665 414.626 36.1611C416.114 36.6572 417.428 37.3429 418.566 38.2183C419.704 39.0938 420.608 40.1443 421.279 41.3699C421.98 42.5954 422.33 43.9523 422.33 45.4406C422.33 46.0534 422.184 46.6516 421.892 47.2352C421.63 47.7896 421.265 48.2857 420.798 48.7234C420.331 49.1319 419.791 49.4675 419.178 49.7301C418.595 49.9636 417.982 50.0803 417.34 50.0803C417.282 50.0803 417.223 50.0949 417.165 50.1241C417.136 50.1241 417.092 50.1241 417.034 50.1241C416.975 50.1532 416.917 50.1678 416.859 50.1678L417.034 53.6695C417.15 57.8424 417.734 60.8917 418.784 62.8177C419.864 64.7436 421.265 65.7066 422.986 65.7066C423.599 65.7066 424.139 65.6482 424.606 65.5315C425.102 65.4147 425.554 65.2834 425.963 65.1375C426.401 64.9624 426.809 64.8165 427.188 64.6998C427.568 64.5831 427.947 64.5247 428.327 64.5247C428.998 64.5247 429.581 64.8165 430.077 65.4002C430.603 65.9838 430.865 66.6841 430.865 67.5012C430.865 68.3182 430.544 69.1353 429.902 69.9523C429.29 70.7694 428.472 71.5135 427.451 72.1847C426.43 72.8266 425.277 73.3519 423.993 73.7604C422.709 74.169 421.411 74.3732 420.098 74.3732C417.821 74.3732 415.823 73.4394 414.101 71.5719C412.379 69.6751 411.154 66.903 410.424 63.2554C410.249 62.6718 410.016 62.38 409.724 62.38C409.374 62.38 409.067 62.555 408.805 62.9052C405.916 66.5528 402.837 69.2958 399.569 71.1342C396.301 72.9434 393.076 73.848 389.896 73.848C388.407 73.848 387.065 73.6291 385.869 73.1914C384.672 72.7537 383.651 72.1409 382.805 71.353C381.988 70.536 381.346 69.5584 380.879 68.4204C380.441 67.2531 380.222 65.9546 380.222 64.5247C380.222 62.5113 380.66 60.3957 381.535 58.1779C382.44 55.9602 383.651 53.7716 385.168 51.6123C386.686 49.4529 388.437 47.3957 390.421 45.4406C392.434 43.4855 394.535 41.7638 396.724 40.2756C398.942 38.7874 401.188 37.6055 403.465 36.7301C405.741 35.8547 407.915 35.417 409.986 35.417ZM408.542 50.5618C409.067 49.5696 409.549 48.8547 409.986 48.417C410.424 47.9501 411.052 47.6437 411.869 47.4978C412.511 47.4103 412.832 47.206 412.832 46.885C412.832 46.6516 412.744 46.4035 412.569 46.1409C412.015 45.3822 411.431 44.7256 410.818 44.1712C410.205 43.5876 409.388 43.2958 408.367 43.2958C407.258 43.2958 406.018 43.6168 404.646 44.2587C403.275 44.9007 401.874 45.7615 400.444 46.8412C399.044 47.8917 397.658 49.1027 396.286 50.4742C394.944 51.8165 393.747 53.2026 392.697 54.6325C391.646 56.0623 390.8 57.4776 390.158 58.8783C389.516 60.2789 389.195 61.5337 389.195 62.6426C389.195 63.6347 389.458 64.408 389.983 64.9624C390.538 65.5169 391.282 65.7941 392.215 65.7941C394.608 65.7941 397.22 64.5247 400.05 61.986C402.881 59.4473 405.712 55.6392 408.542 50.5618Z" fill="url(#paint2_linear_1353_15404)"/>
<path d="M355.667 37.2997C355.433 37.2997 354.981 37.358 354.31 37.4747C353.668 37.5623 352.909 37.679 352.034 37.8249C351.158 37.9708 350.239 38.1459 349.276 38.3502C348.313 38.5253 347.409 38.6857 346.562 38.8316C345.716 38.9776 344.987 39.1089 344.374 39.2256C343.732 39.3131 343.309 39.3569 343.105 39.3569C341.149 39.3569 340.172 38.3356 340.172 36.2929C340.172 35.7385 340.23 35.1987 340.347 34.6734C340.435 34.119 340.61 33.6229 340.872 33.1852C341.135 32.7183 341.485 32.3244 341.923 32.0034C342.36 31.6824 342.915 31.4635 343.586 31.3468C347 30.8215 350.4 30.2671 353.785 29.6835C357.17 29.0999 360.584 28.4871 364.027 27.8451C364.786 27.6992 365.472 27.5679 366.084 27.4512C366.697 27.3053 367.383 27.1156 368.142 26.8822C368.959 26.6487 369.849 26.4299 370.812 26.2256C371.775 25.9921 372.738 25.7879 373.7 25.6128C374.693 25.4377 375.641 25.2918 376.546 25.1751C377.479 25.0584 378.326 25 379.084 25C380.018 25 380.718 25.3064 381.185 25.9192C381.681 26.5028 381.929 27.3345 381.929 28.4141C381.929 28.9686 381.886 29.5084 381.798 30.0337C381.711 30.5297 381.55 30.982 381.317 31.3906C381.083 31.7991 380.762 32.1347 380.354 32.3973C379.945 32.6599 379.42 32.8204 378.778 32.8788C377.115 33.1122 375.335 33.404 373.438 33.7542C371.541 34.0752 369.892 34.44 368.492 34.8485C367.908 35.0236 367.47 35.3154 367.179 35.7239C366.887 36.1033 366.697 36.5847 366.61 37.1684C366.522 37.7228 366.464 38.2918 366.434 38.8754C366.434 39.4299 366.434 39.9697 366.434 40.4949C366.434 41.7205 366.478 42.9461 366.566 44.1717C366.683 45.3973 366.785 46.6229 366.872 47.8485C367.135 52.0505 367.529 56.2088 368.054 60.3232C368.608 64.4377 369.207 68.596 369.849 72.798C369.907 72.9439 369.936 73.0898 369.936 73.2357C369.936 73.3816 369.936 73.5275 369.936 73.6734C369.936 75.2783 369.032 76.4164 367.222 77.0875L365.253 77.7003C364.727 77.8754 364.217 77.963 363.721 77.963C362.962 77.963 362.349 77.7149 361.882 77.2189C361.415 76.752 361.109 76.0516 360.963 75.1178C360.146 70.0988 359.431 65.1089 358.818 60.1481C358.206 55.1582 357.812 50.1392 357.637 45.0909C357.578 44.2738 357.534 43.3838 357.505 42.4209C357.476 41.4579 357.461 40.4658 357.461 39.4444C357.461 38.0146 356.863 37.2997 355.667 37.2997Z" fill="url(#paint3_linear_1353_15404)"/>
<path d="M299.421 51.7884C299.421 53.014 299.48 54.2834 299.596 55.5965C299.713 56.9096 299.844 58.2228 299.99 59.5359C300.165 60.849 300.311 62.1768 300.428 63.5191C300.545 64.8322 300.603 66.1307 300.603 67.4147C300.603 68.8445 300.107 70.0118 299.115 70.9164C298.123 71.7918 296.795 72.2295 295.132 72.2295C294.315 72.2295 293.541 71.9815 292.812 71.4854C292.111 70.9893 291.718 70.2014 291.63 69.1218C291.484 67.7503 291.338 66.2183 291.192 64.5258C291.076 62.8041 290.959 61.0387 290.842 59.2295C290.755 57.3911 290.667 55.5527 290.579 53.7144C290.492 51.8468 290.419 50.0668 290.361 48.3743C290.302 46.6526 290.258 45.0769 290.229 43.647C290.2 42.188 290.186 40.9624 290.186 39.9702C290.186 39.0948 290.244 38.2632 290.361 37.4753C290.477 36.6874 290.725 36.0017 291.105 35.4181C291.484 34.8344 291.995 34.3676 292.637 34.0174C293.308 33.6672 294.198 33.4921 295.307 33.4921C296.153 33.4921 297.101 33.7985 298.152 34.4113C299.202 34.9949 300.326 35.7974 301.522 36.8187C302.748 37.8401 304.046 39.0219 305.418 40.3642C306.789 41.6773 308.205 43.0634 309.664 44.5224C311.123 45.9815 312.611 47.4697 314.128 48.9871C315.675 50.4753 317.236 51.8906 318.812 53.2329C319.512 53.8457 320.3 54.5606 321.175 55.3777C322.08 56.1947 322.999 56.968 323.933 57.6975C324.896 58.427 325.844 59.0544 326.778 59.5797C327.741 60.0757 328.66 60.3238 329.536 60.3238C330.353 60.3238 330.878 59.9736 331.111 59.2733C331.374 58.5438 331.505 57.3911 331.505 55.8154C331.505 54.6481 331.403 53.2037 331.199 51.482C331.024 49.7604 330.761 47.922 330.411 45.9669C330.061 44.0118 329.623 42.0567 329.098 40.1016C328.573 38.1173 327.975 36.3081 327.303 34.6739C327.157 34.3238 327.012 33.9882 326.866 33.6672C326.749 33.317 326.691 32.9377 326.691 32.5292C326.691 31.858 326.909 31.2598 327.347 30.7346C327.785 30.2093 328.31 29.7716 328.923 29.4214C329.536 29.0713 330.178 28.8086 330.849 28.6335C331.52 28.4293 332.074 28.3271 332.512 28.3271C333.475 28.3271 334.336 28.8524 335.095 29.9029C335.853 30.9242 336.51 32.2665 337.064 33.9298C337.648 35.564 338.129 37.4169 338.509 39.4888C338.888 41.5314 339.195 43.5887 339.428 45.6605C339.691 47.7323 339.866 49.7166 339.953 51.6133C340.07 53.4809 340.128 55.0421 340.128 56.2968C340.128 58.6605 340.026 60.7469 339.822 62.5561C339.647 64.3361 339.253 65.8389 338.64 67.0645C338.056 68.2901 337.196 69.2239 336.058 69.8659C334.92 70.4787 333.402 70.7851 331.505 70.7851C329.988 70.7851 328.398 70.4787 326.734 69.8659C325.071 69.2239 323.379 68.3777 321.657 67.3271C319.964 66.2475 318.243 65.0219 316.492 63.6504C314.77 62.2789 313.078 60.849 311.415 59.3608C309.751 57.8726 308.132 56.3844 306.556 54.8962C305.009 53.408 303.565 52.0219 302.223 50.7379C301.668 50.1835 301.157 49.9063 300.691 49.9063C300.282 49.9063 299.961 50.0814 299.728 50.4315C299.523 50.7525 299.421 51.2048 299.421 51.7884Z" fill="url(#paint4_linear_1353_15404)"/>
<path d="M236.96 62.9053C236.872 62.9053 236.726 62.9199 236.522 62.9491C236.347 62.9783 236.143 63.0075 235.909 63.0366C235.705 63.0658 235.501 63.095 235.296 63.1242C235.092 63.1534 234.932 63.1679 234.815 63.1679C233.998 63.1679 233.283 62.8324 232.67 62.1612C232.057 61.4609 231.751 60.5417 231.751 59.4036C231.751 58.6449 231.999 57.9154 232.495 57.2151C232.991 56.5147 233.764 55.9311 234.815 55.4642C235.136 55.3183 235.384 55.1578 235.559 54.9828C235.763 54.7785 235.865 54.5013 235.865 54.1511C235.865 53.2173 235.836 52.2252 235.778 51.1747C235.749 50.095 235.69 48.8402 235.603 47.4104C235.574 47.1186 235.472 46.8413 235.296 46.5787C235.151 46.3161 234.975 46.0243 234.771 45.7033C234.596 45.3531 234.436 44.9738 234.29 44.5653C234.144 44.1567 234.071 43.6461 234.071 43.0333C234.071 42.4788 234.144 41.8514 234.29 41.1511C234.465 40.4216 234.8 39.7504 235.296 39.1376C235.822 38.4957 236.537 37.9704 237.441 37.5619C238.375 37.1242 239.586 36.9053 241.074 36.9053C241.687 36.9053 242.198 36.9637 242.606 37.0804C243.015 37.1971 243.365 37.343 243.657 37.5181C243.978 37.664 244.255 37.7953 244.488 37.9121C244.751 38.0288 245.014 38.0871 245.276 38.0871C245.743 38.0871 246.677 37.9996 248.078 37.8245C249.478 37.6494 251.156 37.4014 253.111 37.0804C255.096 36.7594 257.269 36.3947 259.633 35.9861C262.026 35.5776 264.448 35.1399 266.899 34.673C269.35 34.1769 271.743 33.6809 274.078 33.1848C276.412 32.6887 278.528 32.2072 280.424 31.7403C281.008 31.5944 281.519 31.5215 281.956 31.5215C282.569 31.5215 283.051 31.6674 283.401 31.9592C283.78 32.2218 284.057 32.5574 284.232 32.9659C284.408 33.3745 284.51 33.8413 284.539 34.3666C284.597 34.8627 284.626 35.3296 284.626 35.7673C284.626 36.526 284.364 37.2409 283.839 37.9121C283.342 38.554 282.511 39.0647 281.344 39.444C278.455 40.2903 275.537 41.0344 272.589 41.6764C269.671 42.2892 266.724 42.8582 263.748 43.3834C260.771 43.8795 257.78 44.3318 254.775 44.7403C251.769 45.1489 248.778 45.5574 245.801 45.9659C245.393 46.0243 245.087 46.1848 244.882 46.4474C244.678 46.6809 244.576 47.0018 244.576 47.4104V49.205C244.576 49.7011 244.59 50.2117 244.62 50.737C244.649 51.2622 244.707 51.7437 244.795 52.1814C244.911 52.6191 245.057 52.9839 245.232 53.2757C245.408 53.5383 245.641 53.6696 245.933 53.6696C246.633 53.6696 247.713 53.5237 249.172 53.2319C250.66 52.9401 252.323 52.5899 254.162 52.1814C256.029 51.7437 257.97 51.2768 259.983 50.7807C262.026 50.2555 263.952 49.7886 265.761 49.3801C267.57 48.9424 269.161 48.5776 270.532 48.2858C271.904 47.994 272.867 47.8481 273.421 47.8481C274.238 47.8481 274.851 48.1545 275.259 48.7673C275.697 49.3509 275.989 50.095 276.135 50.9996C276.135 51.1455 276.149 51.2768 276.179 51.3935C276.208 51.5103 276.222 51.6416 276.222 51.7875C276.222 52.6337 275.96 53.4216 275.434 54.1511C274.938 54.8514 274.034 55.3767 272.721 55.7269C272.371 55.8436 271.67 56.0333 270.62 56.2959C269.569 56.5293 268.329 56.8211 266.899 57.1713C265.469 57.4923 263.923 57.8425 262.259 58.2218C260.596 58.6012 258.962 58.9805 257.357 59.3599C255.752 59.71 254.249 60.0602 252.849 60.4104C251.477 60.7314 250.354 60.994 249.478 61.1982C248.69 61.4025 248.209 61.563 248.034 61.6797C247.888 61.7965 247.815 61.9424 247.815 62.1174C247.873 62.7594 248.194 63.3576 248.778 63.9121C249.391 64.4665 250.149 64.9771 251.054 65.444C251.988 65.9109 253.024 66.3341 254.162 66.7134C255.329 67.0927 256.525 67.4137 257.751 67.6764C259.006 67.9098 260.231 68.0995 261.428 68.2454C262.624 68.3913 263.733 68.4642 264.754 68.4642C265.192 68.4642 265.819 68.4642 266.636 68.4642C267.454 68.4642 268.344 68.4497 269.307 68.4205C270.299 68.3621 271.305 68.2892 272.327 68.2016C273.377 68.1141 274.311 67.9974 275.128 67.8514C275.974 67.6764 276.66 67.4721 277.185 67.2387C277.74 66.976 278.017 66.6696 278.017 66.3195C278.017 65.9985 277.9 65.6629 277.667 65.3127C277.463 64.9626 277.36 64.5832 277.36 64.1747C277.36 63.5911 277.521 63.022 277.842 62.4676C278.163 61.884 278.571 61.3733 279.067 60.9356C279.593 60.4687 280.176 60.104 280.818 59.8413C281.489 59.5495 282.161 59.4036 282.832 59.4036C283.678 59.4036 284.451 59.5787 285.152 59.9289C285.852 60.2499 286.45 60.6876 286.946 61.242C287.472 61.7673 287.865 62.3801 288.128 63.0804C288.42 63.7807 288.566 64.4957 288.566 65.2252C288.566 67.1511 287.851 68.8144 286.421 70.2151C285.02 71.6158 283.182 72.7684 280.906 73.673C278.63 74.6068 276.062 75.2925 273.202 75.7302C270.342 76.1971 267.468 76.4306 264.579 76.4306C261.194 76.4306 258.101 76.1971 255.3 75.7302C252.498 75.2925 249.989 74.5776 247.771 73.5855C245.553 72.5933 243.642 71.3094 242.037 69.7336C240.432 68.1287 239.119 66.1881 238.098 63.9121C237.748 63.2409 237.368 62.9053 236.96 62.9053Z" fill="url(#paint5_linear_1353_15404)"/>
<path d="M188.593 56.9084C187.192 54.9241 185.865 53.0565 184.61 51.3057C183.384 49.5257 182.305 47.877 181.371 46.3596C180.437 44.813 179.707 43.3977 179.182 42.1138C178.628 40.8298 178.351 39.6626 178.351 38.6121C178.351 38.0868 178.584 37.5178 179.051 36.905C179.489 36.263 180.014 35.6794 180.627 35.1542C181.239 34.5997 181.867 34.1474 182.509 33.7973C183.18 33.4179 183.734 33.2282 184.172 33.2282C185.223 33.2282 186.127 33.8848 186.886 35.1979C187.207 35.8107 187.688 36.7153 188.33 37.9118C189.002 39.079 189.775 40.4213 190.65 41.9387C191.526 43.4269 192.489 45.0318 193.539 46.7535C194.619 48.446 195.713 50.1385 196.822 51.8309C197.96 53.5234 199.083 55.1575 200.192 56.7333C201.33 58.2799 202.41 59.6514 203.431 60.8478C204.482 62.0442 205.445 63.0071 206.32 63.7367C207.225 64.437 207.998 64.7872 208.64 64.7872C209.486 64.7872 210.26 64.2036 210.96 63.0363C211.66 61.8691 212.302 60.3371 212.886 58.4404C213.499 56.5436 214.039 54.3988 214.505 52.006C214.972 49.584 215.381 47.1329 215.731 44.6525C216.11 42.1721 216.431 39.7793 216.694 37.474C216.957 35.1396 217.176 33.0969 217.351 31.3461C217.438 30.4123 217.701 29.712 218.138 29.2451C218.576 28.749 219.145 28.501 219.846 28.501C220.458 28.501 221.129 28.6323 221.859 28.8949C222.589 29.1575 223.274 29.5223 223.916 29.9892C224.558 30.4269 225.083 30.9522 225.492 31.5649C225.93 32.1486 226.149 32.7905 226.149 33.4909C226.149 34.5706 226.046 35.8399 225.842 37.299C225.667 38.758 225.434 40.3046 225.142 41.9387C224.879 43.5436 224.573 45.1923 224.223 46.8848C223.872 48.5481 223.522 50.1239 223.172 51.6121C222.939 52.6626 222.618 53.9757 222.209 55.5515C221.83 57.0981 221.348 58.7468 220.765 60.4976C220.181 62.2193 219.495 63.9555 218.707 65.7064C217.92 67.428 217.015 68.9892 215.994 70.3899C214.972 71.7614 213.82 72.8702 212.536 73.7165C211.281 74.5919 209.866 75.0296 208.29 75.0296C207.152 75.0296 205.97 74.7086 204.745 74.0666C203.519 73.4538 202.293 72.6368 201.068 71.6155C199.842 70.5941 198.631 69.4415 197.435 68.1575C196.238 66.8444 195.1 65.5167 194.021 64.1744C192.941 62.8321 191.934 61.5335 191 60.2788C190.067 58.9948 189.264 57.8713 188.593 56.9084Z" fill="url(#paint6_linear_1353_15404)"/>
<path d="M131.209 62.9053C131.121 62.9053 130.975 62.9199 130.771 62.9491C130.596 62.9783 130.392 63.0075 130.158 63.0366C129.954 63.0658 129.75 63.095 129.545 63.1242C129.341 63.1534 129.181 63.1679 129.064 63.1679C128.247 63.1679 127.532 62.8324 126.919 62.1612C126.306 61.4609 126 60.5417 126 59.4036C126 58.6449 126.248 57.9154 126.744 57.2151C127.24 56.5147 128.013 55.9311 129.064 55.4642C129.385 55.3183 129.633 55.1578 129.808 54.9828C130.012 54.7785 130.114 54.5013 130.114 54.1511C130.114 53.2173 130.085 52.2252 130.027 51.1747C129.998 50.095 129.939 48.8402 129.852 47.4104C129.823 47.1186 129.721 46.8413 129.545 46.5787C129.4 46.3161 129.224 46.0243 129.02 45.7033C128.845 45.3531 128.685 44.9738 128.539 44.5653C128.393 44.1567 128.32 43.6461 128.32 43.0333C128.32 42.4788 128.393 41.8514 128.539 41.1511C128.714 40.4216 129.049 39.7504 129.545 39.1376C130.071 38.4957 130.786 37.9704 131.69 37.5619C132.624 37.1242 133.835 36.9053 135.323 36.9053C135.936 36.9053 136.447 36.9637 136.855 37.0804C137.264 37.1971 137.614 37.343 137.906 37.5181C138.227 37.664 138.504 37.7953 138.737 37.9121C139 38.0288 139.263 38.0871 139.525 38.0871C139.992 38.0871 140.926 37.9996 142.327 37.8245C143.727 37.6494 145.405 37.4014 147.36 37.0804C149.345 36.7594 151.519 36.3947 153.882 35.9861C156.275 35.5776 158.697 35.1399 161.148 34.673C163.599 34.1769 165.992 33.6809 168.327 33.1848C170.661 32.6887 172.777 32.2072 174.673 31.7403C175.257 31.5944 175.768 31.5215 176.205 31.5215C176.818 31.5215 177.3 31.6674 177.65 31.9592C178.029 32.2218 178.306 32.5574 178.481 32.9659C178.657 33.3745 178.759 33.8413 178.788 34.3666C178.846 34.8627 178.875 35.3296 178.875 35.7673C178.875 36.526 178.613 37.2409 178.088 37.9121C177.591 38.554 176.76 39.0647 175.593 39.444C172.704 40.2903 169.786 41.0344 166.838 41.6764C163.92 42.2892 160.973 42.8582 157.997 43.3834C155.02 43.8795 152.029 44.3318 149.024 44.7403C146.018 45.1489 143.027 45.5574 140.051 45.9659C139.642 46.0243 139.336 46.1848 139.131 46.4474C138.927 46.6809 138.825 47.0018 138.825 47.4104V49.205C138.825 49.7011 138.84 50.2117 138.869 50.737C138.898 51.2622 138.956 51.7437 139.044 52.1814C139.16 52.6191 139.306 52.9839 139.481 53.2757C139.657 53.5383 139.89 53.6696 140.182 53.6696C140.882 53.6696 141.962 53.5237 143.421 53.2319C144.909 52.9401 146.572 52.5899 148.411 52.1814C150.278 51.7437 152.219 51.2768 154.232 50.7807C156.275 50.2555 158.201 49.7886 160.01 49.3801C161.819 48.9424 163.41 48.5776 164.781 48.2858C166.153 47.994 167.116 47.8481 167.67 47.8481C168.487 47.8481 169.1 48.1545 169.508 48.7673C169.946 49.3509 170.238 50.095 170.384 50.9996C170.384 51.1455 170.398 51.2768 170.428 51.3935C170.457 51.5103 170.471 51.6416 170.471 51.7875C170.471 52.6337 170.209 53.4216 169.683 54.1511C169.187 54.8514 168.283 55.3767 166.97 55.7269C166.62 55.8436 165.919 56.0333 164.869 56.2959C163.818 56.5293 162.578 56.8211 161.148 57.1713C159.718 57.4923 158.172 57.8425 156.508 58.2218C154.845 58.6012 153.211 58.9805 151.606 59.3599C150.001 59.71 148.498 60.0602 147.098 60.4104C145.726 60.7314 144.603 60.994 143.727 61.1982C142.939 61.4025 142.458 61.563 142.283 61.6797C142.137 61.7965 142.064 61.9424 142.064 62.1174C142.122 62.7594 142.443 63.3576 143.027 63.9121C143.64 64.4665 144.398 64.9771 145.303 65.444C146.237 65.9109 147.273 66.3341 148.411 66.7134C149.578 67.0927 150.774 67.4137 152 67.6764C153.255 67.9098 154.48 68.0995 155.677 68.2454C156.873 68.3913 157.982 68.4642 159.003 68.4642C159.441 68.4642 160.068 68.4642 160.886 68.4642C161.703 68.4642 162.593 68.4497 163.556 68.4205C164.548 68.3621 165.554 68.2892 166.576 68.2016C167.626 68.1141 168.56 67.9974 169.377 67.8514C170.223 67.6764 170.909 67.4721 171.434 67.2387C171.989 66.976 172.266 66.6696 172.266 66.3195C172.266 65.9985 172.149 65.6629 171.916 65.3127C171.712 64.9626 171.609 64.5832 171.609 64.1747C171.609 63.5911 171.77 63.022 172.091 62.4676C172.412 61.884 172.82 61.3733 173.316 60.9356C173.842 60.4687 174.425 60.104 175.067 59.8413C175.738 59.5495 176.41 59.4036 177.081 59.4036C177.927 59.4036 178.7 59.5787 179.401 59.9289C180.101 60.2499 180.699 60.6876 181.195 61.242C181.721 61.7673 182.114 62.3801 182.377 63.0804C182.669 63.7807 182.815 64.4957 182.815 65.2252C182.815 67.1511 182.1 68.8144 180.67 70.2151C179.269 71.6158 177.431 72.7684 175.155 73.673C172.879 74.6068 170.311 75.2925 167.451 75.7302C164.591 76.1971 161.717 76.4306 158.828 76.4306C155.443 76.4306 152.35 76.1971 149.549 75.7302C146.747 75.2925 144.238 74.5776 142.02 73.5855C139.802 72.5933 137.891 71.3094 136.286 69.7336C134.681 68.1287 133.368 66.1881 132.347 63.9121C131.997 63.2409 131.617 62.9053 131.209 62.9053Z" fill="url(#paint7_linear_1353_15404)"/>
</g>
<defs>
<linearGradient id="paint0_linear_1353_15404" x1="472.185" y1="68.7057" x2="515.65" y2="68.7057" gradientUnits="userSpaceOnUse">
<stop stop-color="#1B06AB"/>
<stop offset="1" stop-color="#FF1400"/>
</linearGradient>
<linearGradient id="paint1_linear_1353_15404" x1="428.064" y1="68.7057" x2="471.529" y2="68.7057" gradientUnits="userSpaceOnUse">
<stop stop-color="#1B06AB"/>
<stop offset="1" stop-color="#FF1400"/>
</linearGradient>
<linearGradient id="paint2_linear_1353_15404" x1="380.222" y1="54.8951" x2="430.865" y2="54.8951" gradientUnits="userSpaceOnUse">
<stop stop-color="#1B06AB"/>
<stop offset="1" stop-color="#FF1400"/>
</linearGradient>
<linearGradient id="paint3_linear_1353_15404" x1="340.172" y1="51.4815" x2="381.929" y2="51.4815" gradientUnits="userSpaceOnUse">
<stop stop-color="#1B06AB"/>
<stop offset="1" stop-color="#FF1400"/>
</linearGradient>
<linearGradient id="paint4_linear_1353_15404" x1="290.186" y1="50.2783" x2="340.128" y2="50.2783" gradientUnits="userSpaceOnUse">
<stop stop-color="#1B06AB"/>
<stop offset="1" stop-color="#FF1400"/>
</linearGradient>
<linearGradient id="paint5_linear_1353_15404" x1="231.751" y1="53.976" x2="288.566" y2="53.976" gradientUnits="userSpaceOnUse">
<stop stop-color="#1B06AB"/>
<stop offset="1" stop-color="#FF1400"/>
</linearGradient>
<linearGradient id="paint6_linear_1353_15404" x1="178.351" y1="51.7653" x2="226.149" y2="51.7653" gradientUnits="userSpaceOnUse">
<stop stop-color="#1B06AB"/>
<stop offset="1" stop-color="#FF1400"/>
</linearGradient>
<linearGradient id="paint7_linear_1353_15404" x1="126" y1="53.976" x2="182.815" y2="53.976" gradientUnits="userSpaceOnUse">
<stop stop-color="#1B06AB"/>
<stop offset="1" stop-color="#FF1400"/>
</linearGradient>
<clipPath id="clip0_1353_15404">
<rect width="518" height="120" fill="white"/>
</clipPath>
</defs>
</svg>
